<svg xmlns="http://www.w3.org/2000/svg" viewBox="0 0 401.5 401.5"><title>MFM_Hammer_Anvil</title><path id="gear" d="M369.8 182.7l29.6-11.6c-2.2-15.1-6.2-29.9-11.8-44l-31.5 4.8 -18-31.4 19.8-24.8c-9.5-11.9-20.3-22.7-32.2-32.2l-24.8 19.8 -31.2-18 4.8-31.5c-14.2-5.6-28.9-9.5-44-11.8l-11.6 29.6h-36.2L171.1 2c-15.1 2.2-29.9 6.2-44 11.8l4.8 31.5 -31.3 18.1L75.8 43.6c-11.9 9.5-22.7 20.3-32.2 32.2l19.8 24.8 -18 31.2L13.9 127c-5.6 14.2-9.5 28.9-11.8 44l29.6 11.6v36.2L2 230.5c2.2 15.1 6.2 29.9 11.8 44l31.5-4.8L63.4 301l-19.8 24.8c9.5 11.9 20.3 22.7 32.2 32.2l24.8-19.8 31.3 18.1 -4.8 31.5c14.2 5.5 28.9 9.5 43.9 11.7l11.6-29.6h36.2l11.7 29.6c15.1-2.2 29.9-6.2 44-11.8l-4.8-31.5 31.3-18 24.8 19.8c11.9-9.5 22.7-20.3 32.2-32.2L338.2 301l18.1-31.3 31.5 4.8c5.5-14.2 9.5-28.9 11.7-43.9L369.9 219v-36.3H369.8zM200.7 345.7c-82.2 0-144.9-65.7-144.9-144.9 0-84.1 68.3-144.9 144.9-144.9s145 61.7 145 144.9S277.4 345.7 200.7 345.7z"/><path id="internal" d="M200.2 51.6C118.1 51.6 51.6 118 51.5 200v0.2c0 18.2 3.3 36.3 9.8 53.2 0.8 2 1.6 3.9 2.4 5.9 23.6 54.4 77.2 89.5 136.5 89.5 3.6 0 7.2-0.1 10.7-0.4 81.9-6 143.5-77.2 137.5-159.1C342.7 111.8 278.1 51.7 200.2 51.6zM192.6 328.2c-1.4 4.5-3.1 10.1-4.2 13.9 -33.6-2.7-65.1-17.3-88.8-41.2 -9.5-9.5-17.7-20.3-24.2-32.2 10 6.6 22.5 11.9 36.9 15.6 11.2 2.7 22.5 4.4 34 5.2v1.7c0 0.1 0.1 0.3 0.3 0.3h20.8c14.6 0 20.9 0.3 25.8 3.4 4.3 2.8 6.8 5.1 6.7 11.4C199.7 312 194.2 323.1 192.6 328.2L192.6 328.2zM300.9 300.9c-4 4-8.2 7.8-12.7 11.3 -2.2-5.8-2-12.2 0.6-17.8 5.6-13.3 17.7-23 36.6-26C318.8 280.3 310.5 291.3 300.9 300.9L300.9 300.9 300.9 300.9zM334.5 247.7H144.8c-0.2 0-0.3 0.1-0.3 0.3l0 0v3.1c0 0.1 0.1 0.3 0.3 0.3h1.4v2.1H68.1c-6.7-16.6-10.2-30.2-10.3-48.6l142.4-41.2 19.7 38.9 63.2-21.6L229 85.5l-62.4 4.6 26.2 49.9L59 179.4c5.5-27.1 20.5-59.8 40.5-79.8 55.7-55.5 145.9-55.4 201.4 0.3C339.6 138.6 352.7 196.1 334.5 247.7L334.5 247.7 334.5 247.7z"/></svg>